/* XPM */
static char *pac_open_right1742676779[] = {
/* columns rows colors chars-per-pixel */
"64 64 2 1 ",
"  c #FFF100",
". c None",
/* pixels */
"................................................................",
"................................................................",
"................................................................",
"................................................................",
"................................................................",
"................................................................",
"................................................................",
"................................................................",
"..........................                  ....................",
"..........................                  ....................",
"..........................                  ....................",
"..........................                  ....................",
"..................                          ....................",
"..................                          ....................",
"..................                          ....................",
"..................                          ....................",
"................                        ........................",
"................                        ........................",
"................                        ........................",
"................                        ........................",
"................                    ............................",
"................                    ............................",
"............                    ................................",
"............                    ................................",
"..........                      ................................",
"..........                      ................................",
"..........                      ................................",
"..........                      ................................",
"..........                    ..................................",
"..........                    ..................................",
"..........                    ..................................",
"..........                    ..................................",
"..........                ......................................",
"..........                ......................................",
"..........                    ..................................",
"..........                    ..................................",
"..........                    ..................................",
"..........                    ..................................",
"..........                      ................................",
"..........                      ................................",
"............                    ................................",
"............                    ................................",
"................                    ............................",
"................                    ............................",
"................                    ............................",
"................                    ............................",
"................                        ........................",
"................                        ........................",
"..................                          ....................",
"..................                          ....................",
"..................                          ....................",
"..................                          ....................",
"........................                    ....................",
"........................                    ....................",
"..........................                  ....................",
"..........................                  ....................",
"................................................................",
"................................................................",
"................................................................",
"................................................................",
"................................................................",
"................................................................",
"................................................................",
"................................................................"
};
