/* XPM */
static char *portal1742676779[] = {
/* columns rows colors chars-per-pixel */
"64 64 225 2 ",
"   c #202020",
".  c gray13",
"X  c #222222",
"o  c #232323",
"O  c gray14",
"+  c #252525",
"@  c gray15",
"#  c #272727",
"$  c #282828",
"%  c gray16",
"&  c #2A2A2A",
"*  c gray17",
"=  c #2C2C2C",
"-  c #2D2D2D",
";  c gray18",
":  c #2F2F2F",
">  c gray19",
",  c #313131",
"<  c #323232",
"1  c gray20",
"2  c #343434",
"3  c #353535",
"4  c gray21",
"5  c #373737",
"6  c gray22",
"7  c #393939",
"8  c #3A3A3A",
"9  c gray23",
"0  c #3C3C3C",
"q  c gray24",
"w  c #3E3E3E",
"e  c #3F3F3F",
"r  c gray25",
"t  c #414141",
"y  c gray26",
"u  c #434343",
"i  c #444444",
"p  c gray27",
"a  c #464646",
"s  c gray28",
"d  c #484848",
"f  c #494949",
"g  c gray29",
"h  c #4B4B4B",
"j  c #4C4C4C",
"k  c gray30",
"l  c #4E4E4E",
"z  c gray31",
"x  c #505050",
"c  c #515151",
"v  c gray32",
"b  c #535353",
"n  c gray33",
"m  c #555555",
"M  c #565656",
"N  c gray34",
"B  c #585858",
"V  c gray35",
"C  c #5A5A5A",
"Z  c #5B5B5B",
"A  c gray36",
"S  c #5D5D5D",
"D  c gray37",
"F  c #5F5F5F",
"G  c #606060",
"H  c gray38",
"J  c #626262",
"K  c gray39",
"L  c #646464",
"P  c #656565",
"I  c gray40",
"U  c #676767",
"Y  c #686868",
"T  c DimGray",
"R  c #6A6A6A",
"E  c gray42",
"W  c #6C6C6C",
"Q  c #6D6D6D",
"!  c gray43",
"~  c #6F6F6F",
"^  c gray44",
"/  c #717171",
"(  c #727272",
")  c gray45",
"_  c #747474",
"`  c gray46",
"'  c #767676",
"]  c #777777",
"[  c gray47",
"{  c #797979",
"}  c gray48",
"|  c #7B7B7B",
" . c #7C7C7C",
".. c gray49",
"X. c #7E7E7E",
"o. c gray50",
"O. c #808080",
"+. c #818181",
"@. c gray51",
"#. c #838383",
"$. c #848484",
"%. c gray52",
"&. c #868686",
"*. c gray53",
"=. c #888888",
"-. c #898989",
";. c gray54",
":. c #8B8B8B",
">. c gray55",
",. c #8D8D8D",
"<. c #8E8E8E",
"1. c gray56",
"2. c #909090",
"3. c gray57",
"4. c #929292",
"5. c #939393",
"6. c gray58",
"7. c #959595",
"8. c gray59",
"9. c #979797",
"0. c #989898",
"q. c gray60",
"w. c #9A9A9A",
"e. c #9B9B9B",
"r. c gray61",
"t. c #9D9D9D",
"y. c gray62",
"u. c #9F9F9F",
"i. c #A0A0A0",
"p. c gray63",
"a. c #A2A2A2",
"s. c gray64",
"d. c #A4A4A4",
"f. c #A5A5A5",
"g. c gray65",
"h. c #A7A7A7",
"j. c gray66",
"k. c #A9A9A9",
"l. c #AAAAAA",
"z. c gray67",
"x. c #ACACAC",
"c. c gray68",
"v. c #AEAEAE",
"b. c #AFAFAF",
"n. c gray69",
"m. c #B1B1B1",
"M. c #B2B2B2",
"N. c gray70",
"B. c #B4B4B4",
"V. c gray71",
"C. c #B6B6B6",
"Z. c #B7B7B7",
"A. c gray72",
"S. c #B9B9B9",
"D. c gray73",
"F. c #BBBBBB",
"G. c #BCBCBC",
"H. c gray74",
"J. c gray",
"K. c gray75",
"L. c #C0C0C0",
"P. c #C1C1C1",
"I. c gray76",
"U. c #C3C3C3",
"Y. c gray77",
"T. c #C5C5C5",
"R. c #C6C6C6",
"E. c gray78",
"W. c #C8C8C8",
"Q. c gray79",
"!. c #CACACA",
"~. c #CBCBCB",
"^. c gray80",
"/. c #CDCDCD",
"(. c #CECECE",
"). c gray81",
"_. c #D0D0D0",
"`. c gray82",
"'. c #D2D2D2",
"]. c LightGray",
"[. c gray83",
"{. c #D5D5D5",
"}. c gray84",
"|. c #D7D7D7",
" X c #D8D8D8",
".X c gray85",
"XX c #DADADA",
"oX c gray86",
"OX c gainsboro",
"+X c #DDDDDD",
"@X c gray87",
"#X c #DFDFDF",
"$X c gray88",
"%X c #E1E1E1",
"&X c #E2E2E2",
"*X c gray89",
"=X c #E4E4E4",
"-X c gray90",
";X c #E6E6E6",
":X c #E7E7E7",
">X c gray91",
",X c #E9E9E9",
"<X c #EAEAEA",
"1X c gray92",
"2X c #ECECEC",
"3X c gray93",
"4X c #EEEEEE",
"5X c #EFEFEF",
"6X c gray94",
"7X c #F1F1F1",
"8X c gray95",
"9X c #F3F3F3",
"0X c #F4F4F4",
"qX c gray96",
"wX c #F6F6F6",
"eX c gray97",
"rX c #F8F8F8",
"tX c #F9F9F9",
"yX c gray98",
"uX c #FBFBFB",
"iX c gray99",
"pX c #FDFDFD",
"aX c #FEFEFE",
"sX c white",
"dX c None",
/* pixels */
"dXdXdXdXdXdXdXdXdXdXdXdXdXdXdXdXdXdXdXdXdXdXdXdXdXdXdXdXdXdXdXdX% % = % dXdXdXdXdXdXdXdXdXdXdXdXdXdXdXdXdXdXdXdXdXdXdXdXdXdXdXdX",
"dXdXdXdXdXdXdXdXdXdXdXdXdXdXdXdXdXdXdXdXdXdXdXdXdXdXdXdXdXdXdXdX< = = = dXdXdXdXdXdXdXdXdXdXdXdXdXdXdXdXdXdXdXdXdXdXdXdXdXdXdXdX",
"dXdXdXdXdXdXdXdXdXdXdXdXdXdXdXdXdXdXdXdXdXdX= = = = 4 4 6 6 6 6 6 6 6 4 0 6 6 4 < < < = dXdXdXdXdXdXdXdXdXdXdXdXdXdXdXdXdXdXdXdX",
"dXdXdXdXdXdXdXdXdXdXdXdXdXdXdXdXdXdXdXdXdXdX= < 4 4 6 6 0 0 t t t t t t t 0 0 6 4 4 < < dXdXdXdXdXdXdXdXdXdXdXdXdXdXdXdXdXdXdXdX",
"dXdXdXdXdXdXdXdXdXdXdXdXdXdXdXdXdXdX= = 4 4 4 4 0 0 t t a f f z z z z f f f a a 0 0 0 6 6 4 < < dXdXdXdXdXdXdXdXdXdXdXdXdXdXdXdX",
"dXdXdXdXdXdXdXdXdXdXdXdXdXdXdXdXdXdX4 4 4 6 t t a z z v v M M C M M C M M M v z z f f a t 6 4 4 dXdXdXdXdXdXdXdXdXdXdXdXdXdXdXdX",
"dXdXdXdXdXdXdXdXdXdXdXdX@ % % = < 4 6 6 0 a f z v M C F G G P P P P P P G G F C C M v z f a 0 0 6 4 < = dXdXdXdXdXdXdXdXdXdXdXdX",
"dXdXdXdXdXdXdXdXdXdXdXdX@ % = = 4 6 0 a f z M C F F G Y Y ~ ~ / / / / / / ~ Y Y P F F C v z f t t 6 4 < dXdXdXdXdXdXdXdXdXdXdXdX",
"dXdXdXdXdXdXdXdXdXdX% % % = < < 6 t f z v C G P Y ~ ~ ] { { {  . . .O. . .{ { ] / ~ Y P G C M z a t 6 4 < < dXdXdXdXdXdXdXdXdXdX",
"dXdXdXdXdXdXdXdXdXdX% % % < 4 0 a f v M F P Y / ] {  . .$.$.-.-.1.-.1.-.-.$.$.O. .{ ] / Y P F M v f a 6 4 < dXdXdXdXdXdXdXdXdXdX",
"dXdXdXdXdXdXdXdXdXdX= = < 6 0 a f v C G Y / ]  . .$.-.1.2.2.9.9.9.9.0.9.9.2.2.1.-.$.O.{ ] ~ P G C v f a 0 4 < < dXdXdXdXdXdXdXdX",
"dXdXdXdXdXdXdXdXdXdX= < 4 0 a z M F P ~ / { O.$.1.2.9.0.u.u.u.s.s.s.s.s.u.u.u.0.9.2.1.$. .{ ] ~ G F M z a 0 4 4 dXdXdXdXdXdXdXdX",
"dXdXdXdXdXdXdXdX= = < 6 0 a z M G Y / ]  .$.-.2.0.u.s.s.j.j.v.v.v.v.v.v.j.j.d.d.s.0.9.2.-.$. .] / P G M z a 0 6 4 = dXdXdXdXdXdX",
"dXdXdXdXdXdXdXdX= = 4 0 a z M F Y / { O.-.2.9.u.s.d.j.v.m.B.B.F.B.F.F.B.F.B.m.v.v.d.s.u.9.2.-.O.{ / Y F M f t 0 4 < dXdXdXdXdXdX",
"dXdXdXdXdXdX@ @ = 4 6 a z M G Y / { O.-.9.0.s.d.v.m.B.F.H.H.L.L.L.L.L.L.L.H.H.F.B.m.j.d.s.0.2.-.$.{ / Y F M z t 6 4 = = dXdXdXdX",
"dXdXdXdXdXdX@ % < 4 t f v F Y / { O.1.9.u.d.j.m.B.H.H.L.Y.Y.~.~.).~.).~.~.Y.Y.L.H.F.B.m.j.s.u.9.1.$.{ / P F v f t 4 < = dXdXdXdX",
"dXdXdXdXdXdX% = 4 0 f v C P / { $.1.9.0.d.v.m.F.H.Y.Y.~.).'.|.'.|.|.'.|.'.'.).~.Y.L.H.F.m.v.d.u.2.-.O.{ ~ G C z a 0 4 < dXdXdXdX",
"dXdXdXdXdXdX= 4 6 t z M G ~ { O.-.9.u.d.v.B.F.L.Y.).'.|.|. X X@X@X@X@X@X X X|.'.'.~.~.L.H.m.v.d.u.9.1.O.] ~ G C z a 6 4 dXdXdXdX",
"dXdXdXdX% % < 4 0 z M G Y ]  .-.2.u.s.v.B.H.L.~.'.'.|.@X@X=X=X=X=X=X=X=X=X*X*X X X'.).Y.L.H.B.v.d.u.2.-. .] Y F v f 0 6 < = dXdX",
"dXdXdXdX@ = 4 6 a z C Y /  .$.2.u.s.v.B.H.Y.~.'. X X@X*X=X,X5X5X5X5X5X5X,X,X=X*X@X@X|.'.~.Y.H.B.j.d.0.1.$. ./ P C z a 6 < = dXdX",
"dXdXdXdX= < 4 0 f M G Y { $.1.9.s.j.B.F.Y.~.'.|.@X*X=X5X5X6X0X0X0X0X0X0X0X6X5X5X=X*X@X|.'.~.L.F.B.j.s.9.1.O.] Y F M f 0 4 < dXdX",
"dXdXdXdX= < 6 a z C P /  .$.2.u.j.m.F.L.~.'. X@X=X,X5X6X0XtXtXtXtXpXpXtXtX0X0X6X5X,X*X@X X'.~.L.F.m.d.u.2.-. .~ P C z t 6 4 dXdX",
"dXdXdXdX< 4 t f v F Y ] O.1.0.d.v.B.L.~.).|.@X=X,X6X0XtXtXtXpXpXpXpXpXpXpXpXtX0X0X5X,X*X@X|.).Y.L.B.v.d.0.1.O.] Y F v f 0 6 dXdX",
"dXdXdXdX< 6 t f M P / { -.2.u.d.B.H.Y.~.|.@X*X,X6X0XtXtXpXpXpXpXpXpXpXpXpXpXpXpX0X6X5X,X=X X|.).Y.F.m.j.u.2.$. .~ G M f t 6 dXdX",
"dXdX% = < 6 a z C Y / O.-.0.s.v.F.L.~.'. X*X,X6X0XtXpXpXpXpXpXpXpXpXpXpXpXpXpXpXtXtX0X5X,X*X X'.~.L.B.v.s.9.1. ./ P C z t 0 4 = ",
"dXdX% = 4 0 a v F Y ] $.2.0.d.m.F.L.~.|.@X=X,X6XtXtXpXpXpXpXpXpXpXpXpXpXpXpXpXpXpXtX0X0X,X=X@X|.).L.F.m.d.0.1.O.] Y F v a 6 < < ",
"o o @ = 4 0 f M F ~ { $.2.u.j.m.H.Y.). X*X,X6X0XtXpXpXpXpXpXpXpXpXpXpXpXpXpXpXpXpXpXtX0X6X,X*X X).Y.H.B.j.u.2.$.{ ~ F M f 0 4 = ",
"o o @ = 4 0 f M G ~  .-.9.u.v.B.L.~.'.@X*X5X0XtXpXpXpXpXpXpXpXpXpXpXpXpXpXpXpXpXpXpXpXtX0X5X*X X'.).H.F.j.u.9.-.{ ~ G M f 0 4 = ",
"  o @ = 4 t f M P /  .-.9.s.v.F.Y.).|.@X=X5X0XtXpXpXpXpXpXpXpXpXpXpXpXpXpXpXpXpXpXpXpXtX6X5X=X@X|.~.L.B.v.s.9.-. .~ G C z t 4 = ",
"  o @ < 6 t z C P / O.-.0.d.v.F.L.).|.@X,X6XtXtXpXpXpXpXpXpXpXpXpXpXpXpXpXpXpXpXpXpXpXpXtX6X,X@X|.).Y.H.v.d.9.-. .] P C f t 4 < ",
"o o @ = 4 t v C Y / O.1.0.d.m.F.Y.).|.*X,X6XtXpXpXpXpXpXpXpXpXpXpXpXpXpXpXpXpXpXpXpXpXtX0X6X,X*X|.).Y.H.v.d.9.1.O.] P C z t 4 < ",
"  o @ = 6 t z C Y ] O.1.0.j.m.H.~.). X*X,X6XtXpXpXpXpXpXpXpXpXpXpXpXpXpXpXpXpXpXpXpXpXpXtX6X,X*X X'.Y.F.m.d.0.1. ./ P C z t 4 = ",
"o o @ < 6 t z C P ]  .1.u.d.m.H.Y.). X*X,X6XtXtXpXpXpXpXpXpXpXpXpXpXpXpXpXpXpXpXpXpXpXtXtX6X,X*X X).Y.H.m.d.0.-.O./ P C z t 4 < ",
"  o % = 6 t f C P / O.1.0.d.m.F.Y.). X@X,X6X0XpXpXpXpXpXpXpXpXpXpXpXpXpXpXpXpXpXpXpXpXpX0X6X=X*X|.).Y.F.v.s.0.1. .] P C z t 4 = ",
"  o @ = 4 t f C P / O.1.0.d.v.F.Y.'.|.@X,X6X0XpXpXpXpXpXpXpXpXpXpXpXpXpXpXpXpXpXpXpXpXtX0X6X=X@X|.).L.F.v.s.0.1.O./ P C z t 4 = ",
"  o @ % 4 t z M P /  .-.9.s.v.F.L.~.|.@X=X5X0XtXpXpXpXpXpXpXpXpXpXpXpXpXpXpXpXpXpXpXpXtX0X5X=X*X'.~.L.F.v.s.9.-. ./ P M f 0 4 = ",
"dXdX@ = < 0 f M G ~ { $.9.u.j.B.L.~.'.@X*X,X6XtXpXpXpXpXpXpXpXpXpXpXpXpXpXpXpXpXpXpXpX0X6X,X*X X'.Y.L.B.j.s.9.$.{ ~ G M f 0 4 = ",
"dXdX% = 4 0 f v G ~ { $.2.u.j.B.H.Y.).|.*X=X6X0XtXpXpXpXpXpXpXpXpXpXpXpXpXpXpXpXpXpXtX0X5X=X*X|.).Y.H.m.d.u.2.$.] Y F v a 6 < = ",
"dXdXdXdX4 6 a z F Y ] O.1.0.d.v.F.L.).'.@X*X5X6X0XtXpXpXpXpXpXpXpXpXpXpXpXpXpXpXpXtX0X6X,X=X X|.~.L.F.v.d.0.1.O.] P C z a 6 < % ",
"dXdXdXdX< 4 t z C P /  .-.2.s.v.B.H.~.). X@X=X5X0XtXtXpXpXpXpXpXpXpXpXpXpXpXpXpXtXtX6X5X=X*X|.).Y.L.B.j.s.2.-.{ / G M z t 6 < = ",
"dXdXdXdX< 4 0 f M F ~ { $.2.0.j.m.F.Y.).'. X*X=X5X6XtXtXpXpXpXpXpXpXpXpXpXpXpXtX0X6X5X,X*X X|.).L.F.m.d.0.1.O.{ Y G v f 0 6 dXdX",
"dXdXdXdX= < 0 a v C P / O.-.9.s.v.m.H.Y.).|.@X*X,X5X6X0X0XtXpXpXpXpXpXpXpXtXtX0X6X5X,X*X X'.).L.H.B.j.s.9.1. ./ P F z a 0 4 dXdX",
"dXdXdXdX% < 4 t f C G ~ { $.2.0.d.m.B.L.~.'.|. X*X=X5X6X0X0X0XtXpXtXtXtXtX0X6X6X5X=X*X X|.).~.H.F.v.s.0.1.$.{ ~ G M f t 4 4 dXdX",
"dXdXdXdX% = 4 0 f v F Y ]  .-.9.u.d.m.F.H.Y.).|. X@X*X=X5X5X6X0X0X0X0X0X6X5X5X=X=X@X X|.).~.L.F.m.d.u.9.-. ./ Y F v a 0 < = dXdX",
"dXdXdXdXdXdX4 6 t z M G ~ { O.1.9.s.v.m.F.L.~.).'. X@X*X=X=X,X5X5X5X5X,X,X,X*X*X@X|.'.).Y.L.F.m.j.s.9.1.O.{ ~ G M z t 4 < = dXdX",
"dXdXdXdXdXdX= 4 0 f v C P /  .$.1.0.s.j.m.F.H.Y.~.).|. X@X@X*X=X*X*X=X*X*X@X@X|.|.).).Y.H.F.m.j.s.0.1.O.{ / P C v a 0 4 = % dXdX",
"dXdXdXdXdXdX= < 6 t f v F Y ]  .$.2.0.s.v.m.F.H.Y.~.).'.|.|.|. X X X@X X X|.'.'.~.~.L.H.F.m.j.s.0.2.$. .] P F v f t 6 < dXdXdXdX",
"dXdXdXdXdXdX% = < 0 a z C G Y ]  .-.2.9.s.d.m.B.F.H.L.Y.~.~.).).'.'.'.'.).).~.Y.L.L.F.B.v.d.s.0.2.-. .] Y G M z a 6 4 = dXdXdXdX",
"dXdXdXdXdXdX% % < 4 0 f v C G ~ ]  .$.2.0.s.j.v.m.B.H.H.L.Y.~.~.Y.~.Y.~.Y.L.L.H.H.B.m.j.s.u.9.1.-. .] ~ G C v a 0 4 = = dXdXdXdX",
"dXdXdXdXdXdX@ % % < 6 t a v C G ~ ] O.$.1.9.0.s.d.v.m.B.B.F.F.H.L.H.L.H.H.F.F.B.m.v.d.s.0.9.1.-. .] ~ G C v a t 6 < % @ dXdXdXdX",
"dXdXdXdXdXdXdXdX% = 4 6 t f v C P Y ]  .O.-.2.0.u.s.d.j.v.v.m.B.B.B.B.B.m.v.j.j.d.s.u.9.2.-.O. .] Y G C v f t 6 < = % @ dXdXdXdX",
"dXdXdXdXdXdXdXdX% = = < 6 t f v C G Y / { O.-.1.2.0.0.s.s.d.j.j.j.j.j.j.d.d.s.u.0.9.2.1.$.O.{ / Y G C v f t 6 < = % @ @ dXdXdXdX",
"dXdXdXdXdXdXdXdXdXdX= = 4 6 t f z C F P / ] { O.$.1.2.2.9.0.0.u.s.u.u.u.0.0.0.9.1.1.$.O. .] ~ P G C v a t 6 4 = % @ dXdXdXdXdXdX",
"dXdXdXdXdXdXdXdXdXdX% = = 4 6 0 a z M F G Y / ] {  .$.$.-.1.2.2.2.2.2.2.1.1.-.$.O. .{ ] / Y G F M z a t 6 < = % % @ dXdXdXdXdXdX",
"dXdXdXdXdXdXdXdXdXdXdXdX= = 4 6 t a z v C G P Y ~ ] ] {  . .O.$.$.$.$.$.O.O. .{ ] / ~ Y G F C v f a 0 6 < = % @ dXdXdXdXdXdXdXdX",
"dXdXdXdXdXdXdXdXdXdXdXdX% % = < 6 6 t a z M M F P P Y ~ / ] ] { { ] { { ] ] / / Y Y G F C M z f t 0 4 < % % % @ dXdXdXdXdXdXdXdX",
"dXdXdXdXdXdXdXdXdXdXdXdXdXdX= = < < 6 t a f z v C C G G P P P Y ~ Y Y Y Y Y P G F C C v z f a 0 6 < = % @ @ dXdXdXdXdXdXdXdXdXdX",
"dXdXdXdXdXdXdXdXdXdXdXdXdXdX% % % < 4 6 0 0 a f f z M M M C F F F F C F F C M M v z f f a 0 6 4 4 < = @ @ o dXdXdXdXdXdXdXdXdXdX",
"dXdXdXdXdXdXdXdXdXdXdXdXdXdXdXdXdXdXdXdX4 4 6 0 t a f f z z z v v z v z v z z a f a t 0 6 4 < < dXdXdXdXdXdXdXdXdXdXdXdXdXdXdXdX",
"dXdXdXdXdXdXdXdXdXdXdXdXdXdXdXdXdXdXdXdX= < 4 6 6 6 0 0 t t a a a a a a t t t 0 0 0 6 4 4 < = = dXdXdXdXdXdXdXdXdXdXdXdXdXdXdXdX",
"dXdXdXdXdXdXdXdXdXdXdXdXdXdXdXdXdXdXdXdXdXdXdXdX< 4 < 4 4 6 6 6 0 0 6 0 6 4 4 4 < < = = dXdXdXdXdXdXdXdXdXdXdXdXdXdXdXdXdXdXdXdX",
"dXdXdXdXdXdXdXdXdXdXdXdXdXdXdXdXdXdXdXdXdXdXdXdX= = = = < < 4 < 4 4 4 < 4 < < = % % % = dXdXdXdXdXdXdXdXdXdXdXdXdXdXdXdXdXdXdXdX",
"dXdXdXdXdXdXdXdXdXdXdXdXdXdXdXdXdXdXdXdXdXdXdXdXdXdX% % = = = < < < = < < = % % @ @ dXdXdXdXdXdXdXdXdXdXdXdXdXdXdXdXdXdXdXdXdXdX",
"dXdXdXdXdXdXdXdXdXdXdXdXdXdXdXdXdXdXdXdXdXdXdXdXdXdX% % % % = = = = < = % % % % @ @ dXdXdXdXdXdXdXdXdXdXdXdXdXdXdXdXdXdXdXdXdXdX"
};
