/* XPM */
static char *wall1742676779[] = {
/* columns rows colors chars-per-pixel */
"64 64 106 2 ",
"   c #001429",
".  c #021334",
"X  c #011539",
"o  c #041544",
"O  c #05164B",
"+  c #08144D",
"@  c #071653",
"#  c #091452",
"$  c #001E53",
"%  c #09165B",
"&  c #011E5C",
"*  c #0D1664",
"=  c #031E63",
"-  c #0F166B",
";  c #061E69",
":  c #091E6F",
">  c #10166F",
",  c #0B1E75",
"<  c #0D1E7B",
"1  c #121675",
"2  c #121678",
"3  c #012771",
"4  c #002E7C",
"5  c #0F1D81",
"6  c #111E84",
"7  c #141E8C",
"8  c #171E92",
"9  c #191E96",
"0  c #1C1E9C",
"q  c #022E83",
"w  c #052E8C",
"e  c #082E8F",
"r  c #02388F",
"t  c #0A2E94",
"y  c #0D2E99",
"u  c #102E9F",
"i  c #033894",
"p  c #1E1EA1",
"a  c #132DA5",
"s  c #172EAC",
"d  c #182DAC",
"f  c #1B2EB3",
"g  c #1E2EB8",
"h  c #212EBD",
"j  c #094DAD",
"k  c #155EAB",
"l  c #195EAF",
"z  c #175DB1",
"x  c #1B5DB4",
"c  c #1E5DBA",
"v  c #225DBD",
"b  c #1A66B6",
"n  c #1D67BC",
"m  c #252EC3",
"M  c #282EC6",
"N  c #2B2ECB",
"B  c #255DC3",
"V  c #295DC7",
"C  c #2B5DCC",
"Z  c #2F5DD0",
"A  c #325ED4",
"S  c #365EDA",
"D  c #3A5EDE",
"F  c #247ACA",
"G  c #3E5EE1",
"H  c #435EE6",
"J  c #475EE9",
"K  c #495EE9",
"L  c #3796DB",
"P  c #3997DB",
"I  c #3DA5DB",
"U  c #41A6DC",
"Y  c #43AADF",
"T  c #46A4E1",
"R  c #4BA5E4",
"E  c #45ACE0",
"W  c #4AABE3",
"Q  c #4FA5E8",
"!  c #53A5EB",
"~  c #59A6EE",
"^  c #4FB6E7",
"/  c #54BAE7",
"(  c #52B7E9",
")  c #56BDEB",
"_  c #58BFEC",
"`  c #5BA5F1",
"'  c #63A5F4",
"]  c #6CA5F7",
"[  c #6FA4F8",
"{  c #5BC2EC",
"}  c #52C7F3",
"|  c #54CAF3",
" . c #5CCAF5",
".. c #5DD1F4",
"X. c #61CBF6",
"o. c #65CAF9",
"O. c #6BCAFA",
"+. c #74CAFB",
"@. c #7BCAFD",
"#. c #64D4F6",
"$. c #69D6F6",
"%. c #6CD9F6",
"&. c #71DCF7",
"*. c #73E0F6",
"=. c #81CAFD",
"-. c None",
/* pixels */
"-.-.%.$.X. . .X.X.o.o.o.O.O.O.+.@.@.=.=.=.=.=.@.+.+.O.O.O.o.o.o.X._  . .} } } } | | | | } | | } } } | } | } | } } } |  .#.$.-.-.",
"-.-._ ( W T R R Q Q ! ! ~ ~ ` ' ] ] ] ] ] ] ] ] ~ ~ ~ ! ! ! R R R R T U U U U U I I I I I I I I I I I I U P I I I U P U ^ { -.-.",
"$._ L F n c n v B V C Z A S D G K K K K K K K H D D S A A C V B v c x x z z z z k k k k k k k k k k k k k k k k k k k b F L { %.",
"#.^ F j i w e t y y a s f g h m N N N N N N h N m h h f d a u u y e w w q q 4 4 4 4 4 4 4 4 4 4 4 4 4 4 4 4 4 4 4 4 4 r j F ( $.",
"..E n i 3 = = ; : , 2 2 6 7 y 9 0 p p p p p 0 0 9 9 7 6 6 < , , ; = & & & & $ $ $ $ $ $ $ $ O X $ $ & $ $ $ $ $ $ $ & 3 i n W  .",
"| U k q & O o O + # % * * * > > 1 2 1 1 1 < 1 > > > - % % # # + O o o o X X X X X X X X X . X   X . X X X . X X X X o = q x T  .",
" .I k 4 $ X X X X X X o o o o + # # # # # # O + + + o + o X X X . . .   .     .   . .               .       .   . . o & w x T | ",
"..I k 4 $ X           . . . . . . X X X X X     X . .   .   .                                                     . o = t c T  .",
"..U k 4 $ X .                 .                                                                                   . o ; t v T  .",
"| U k 4 $ X                                                                                                       X O : y B Q  .",
"| U k 4 $ X                                                                                                       X # , u V Q o.",
"..U k 4 $ X .                                                                                                   . X % < a C Q o.",
"| I k 4 $ X                                                                                                     . X % 5 d Z ! _ ",
"| U k 4 $ X                                                                                                     . o * 7 d A ` O.",
"..Y k 3 $ X                                                                                                     . o * 7 g S ` O.",
"| Y k 4 O .                                                                                                     . + > 9 g G ` O.",
"| I k 4 $ X                                                                                                       X > 9 h G ' [ ",
"..I k 4 $                                                                                                       . + 1 0 N H ' @.",
"| I k 4 $ X                                                                                                     . # 2 p N H ] @.",
"| I k 4 $ X X                                                                                                   . # 2 p N K ] =.",
"| Y k 4 $ X                                                                                                     X # 2 p N K [ =.",
"| Y k 4 $ X                                                                                                     X # 2 p N K [ =.",
"| Y k 4 $ X                                                                                                     X # 1 0 N J [ =.",
"| U b 4 $ X X                                                                                                   X + 1 0 N H ] =.",
"..U k 4 $ X .                                                                                                   X + > 0 M H ] @.",
"..U k 4 & X                                                                                                     . + > 9 M G ` +.",
"X.Y l 4 & X                                                                                                     . + > 9 h D ` +.",
"X.Y x w & X .                                                                                                 . . + * 7 h S ~ O.",
"X.Y v q & X .                                                                                                   . o * 6 d A ~ O.",
"X.R v e = O X                                                                                                   . o % 5 d Z ! o.",
"X.R v t ; O X                                                                                                     X % < a C ! o.",
"o.R B y : + X                                                                                                   . X @ , a V R X.",
"$.~ V u , # o                                                                                                       o 3 y V / O.",
"O./ C u < # o                                                                                                       $ = t n T X.",
"O.! A d < * o                                                                                                       X 3 e v T X.",
"O.~ S f 7 * o .                                                                                                     X & q x U X.",
"+.~ A f 7 * o .                                                                                                     o & q v U X.",
"+.~ D h 9 - + .                                                                                                   . X & q x Y { ",
"+.' G h 9 > X                                                                                                     . X $ 4 l U X.",
"@.] K N 0 > o                                                                                                       X $ 4 k U  .",
"@.] K M 0 1 + X                                                                                                     X $ 4 k Y ..",
"=.] K N 0 1 # X                                                                                                   . X $ 4 k I | ",
"=.] K N p 2 # X                                                                                                   . X $ 4 k I | ",
"=.] K N p 2 # X                                                                                                     X $ 4 k I | ",
"=.[ K N p 2 # X                                                                                                     X $ 4 k I ..",
"=.] K N p 1 # .                                                                                                     X $ 4 k I | ",
"@.' K h 0 1 # .                                                                                                   . X $ 4 k I ..",
"&.' K h 9 1 # .                                                                                                     X $ 4 k I | ",
"+.' S h 8 > + .                                                                                                     X $ 4 k I ..",
"O.~ A h 7 * o .                                                                                                     X $ 4 k I ..",
"O.~ A d 7 * o . .                                                                                                     $ 4 k I | ",
"o.~ Z d < % o .                                                                                                       $ 4 k I | ",
"o.! C a < # o                                                                                                       X $ 4 k I ..",
"o.Q V u , @ X                                                                                                       X $ 4 b I ..",
"X.Q B y : O X                                                                                                       X $ 4 k I | ",
" .W v t ; o X                                                                             . . .                       $ 4 k I ..",
"X.T c e = O X                                                       . . . . . . X . X X X X . . . . . . .         X X $ 4 k E ..",
" .T b w & o X           .   .         . .       .   .     . . X . . X o o o + + + # # # # # + + + O o o o o X . . X X $ 4 k I | ",
" .Y b q & O X X   . X . X X X X X X . X X X X . X X X X o o o O + # # % * * - > 1 1 2 2 2 2 2 1 > > * * % # @ O $ o $ & q k I ..",
"#.R n r 3 & $ $ O $ $ $ $ $ $ $ $ $ $ $ $ $ $ $ $ $ & @ & & = ; > > < 6 7 7 8 9 0 p p p p p p 0 9 7 8 6 5 2 , , = = & 3 i b E ..",
"%./ F j r 4 4 4 4 4 3 4 4 4 3 4 4 4 4 4 4 4 4 4 4 4 q q w w w t y u a d f h h h M M N N N N M M m h h d s a y y t e e i j F ^ #.",
"&.{ P F b k k k k k k k k k k k k k k k k k k k k k k z x c c B B C C Z A S D G H J K K K K H H D D D A Z Z V B v c n n L L { *.",
"-.-._ ^ I I I I I I I I I I I I I I I I I I I I I I I T T T R Q R Q ! ! ! ~ ' ' ' ] ] ] [ ] ' ' ' ` ~ ! ! Q Q Q R T T W ( { -.-.",
"-.-.%.#.| } } | | | } } } } } } } } } | } | } } } | } } }  . . .o._ o.o.o.O.O.+.@.@.=.=.=.=.@.+.+.O.O.O.o.o. .o. . . .X.$.&.-.-."
};
